Coordinates
version=1
nRows=88
nColumns=6
inDegrees=yes

Units are S.I. units (second, meters, Newtons, ...)
If the header above contains a line with 'inDegrees', this indicates whether rotational values are in degrees (yes) or radians (no).

endheader
time	foot_tx	hip_flexion_r	knee_angle_r	ankle_angle_r	lumbar
     33.70000000	      0.25125803	     40.85902117	    -34.30353274	      8.52899897	    -29.61243018
     33.71000000	      0.25136653	     39.60863038	    -33.12276366	      8.27361428	    -29.13241221
     33.72000000	      0.25147503	     38.37560291	    -31.95927860	      8.02265739	    -28.63794264
     33.73000000	      0.25158211	     37.16322071	    -30.81665096	      7.77799799	    -28.12770528
     33.74000000	      0.25168629	     35.97556153	    -29.69794778	      7.54103498	    -27.59977714
     33.75000000	      0.25178590	     34.81676208	    -28.60560304	      7.31259225	    -27.05267534
     33.76000000	      0.25187913	     33.68990075	    -27.54157669	      7.09309874	    -26.48666183
     33.77000000	      0.25196466	     32.59884633	    -26.50786706	      6.88282590	    -25.90154763
     33.78000000	      0.25204228	     31.54608539	    -25.50639503	      6.68204484	    -25.29896310
     33.79000000	      0.25211202	     30.53340694	    -24.53913492	      6.49119636	    -24.68119778
     33.80000000	      0.25217479	     29.56273547	    -23.60789402	      6.31073697	    -24.04968021
     33.81000000	      0.25222872	     28.63228436	    -22.71438952	      6.14180210	    -23.40892169
     33.82000000	      0.25228181	     27.74862125	    -21.85796220	      5.98303727	    -22.75261118
     33.83000000	      0.25232946	     26.90707823	    -21.03892976	      5.83569024	    -22.08618697
     33.84000000	      0.25237055	     26.10406914	    -20.25569386	      5.69968721	    -21.41282927
     33.85000000	      0.25240570	     25.33691748	    -19.50513720	      5.57391412	    -20.73379153
     33.86000000	      0.25243114	     24.59893732	    -18.78472044	      5.45793076	    -20.05531717
     33.87000000	      0.25244839	     23.89223726	    -18.09110745	      5.34960520	    -19.37393459
     33.88000000	      0.25245608	     23.25284838	    -17.42984167	      5.24894486	    -18.65316817
     33.89000000	      0.25245478	     22.56266759	    -16.78011082	      5.15384247	    -18.01467961
     33.90000000	      0.25244512	     21.95613735	    -16.16362385	      5.06504421	    -17.32101396
     33.91000000	      0.25242946	     21.36212437	    -15.57088570	      4.98288559	    -16.64703448
     33.92000000	      0.25241017	     20.78492332	    -15.00106649	      4.90656692	    -15.98762346
     33.93000000	      0.25238907	     20.22605366	    -14.45571503	      4.83696624	    -15.34156964
     33.94000000	      0.25236921	     19.68567725	    -13.93533877	      4.77450380	    -14.70864831
     33.95000000	      0.25235364	     19.16328937	    -13.44002742	      4.71949901	    -14.08845843
     33.96000000	      0.25234479	     18.69547834	    -12.97766388	      4.67341451	    -13.44359465
     33.97000000	      0.25234519	     18.19443729	    -12.52962678	      4.63321904	    -12.86165791
     33.98000000	      0.25235968	     17.71485686	    -12.11001490	      4.60149310	    -12.29106862
     33.99000000	      0.25238613	     17.29596957	    -11.72353988	      4.57786189	    -11.69144362
     34.00000000	      0.25242658	     16.83842918	    -11.34980037	      4.55906789	    -11.16279931
     34.01000000	      0.25247875	     16.44828720	    -11.01042912	      4.54836384	    -10.59973191
     34.02000000	      0.25254620	     16.02164944	    -10.67947788	      4.53985931	    -10.10528566
     34.03000000	      0.25262742	     15.67195967	    -10.38315658	      4.53832534	     -9.56832424
     34.04000000	      0.25272310	     15.30909018	    -10.09700420	      4.53780018	     -9.07711719
     34.05000000	      0.25282357	     14.96562127	     -9.82683883	      4.53998624	     -8.59311172
     34.06000000	      0.25293871	     14.63612221	     -9.57150498	      4.54307108	     -8.12818127
     34.07000000	      0.25306280	     14.31791259	     -9.32568264	      4.54532970	     -7.67941419
     34.08000000	      0.25318906	     14.01053305	     -9.08840693	      4.54667749	     -7.24566671
     34.09000000	      0.25329726	     13.70960312	     -8.86080726	      4.54961020	     -6.82812485
     34.10000000	      0.25338676	     13.38753125	     -8.63148896	      4.55053086	     -6.45056442
     34.11000000	      0.25344195	     13.12838763	     -8.41947934	      4.55459879	     -6.02555603
     34.12000000	      0.25346788	     12.81629507	     -8.19858890	      4.55693766	     -5.66695478
     34.13000000	      0.25346369	     12.55889295	     -7.99128549	      4.56154503	     -5.26605962
     34.14000000	      0.25343577	     12.25529271	     -7.77483128	      4.56416542	     -4.92161064
     34.15000000	      0.25338380	     11.99871538	     -7.56808739	      4.56815580	     -4.53796399
     34.16000000	      0.25331979	     11.70295987	     -7.35405294	      4.57032533	     -4.20346700
     34.17000000	      0.25324291	     11.41774097	     -7.14470071	      4.57324541	     -3.86951527
     34.18000000	      0.25315442	     11.17340913	     -6.94704839	      4.57844165	     -3.50548296
     34.19000000	      0.25306853	     10.88935316	     -6.74264941	      4.58159548	     -3.19137562
     34.20000000	      0.25297727	     10.61427880	     -6.54507433	      4.58618420	     -2.88215437
     34.21000000	      0.25288415	     10.34601397	     -6.35345368	      4.59165526	     -2.57991086
     34.22000000	      0.25278798	     10.08343474	     -6.16782826	      4.59799713	     -2.28633031
     34.23000000	      0.25269265	      9.82647867	     -5.98945914	      4.60477451	     -2.00610124
     34.24000000	      0.25259368	      9.57495146	     -5.81726144	      4.61201282	     -1.73646989
     34.25000000	      0.25248958	      9.32707013	     -5.65149642	      4.61998023	     -1.47959387
     34.26000000	      0.25238240	      9.08279906	     -5.49045091	      4.62763540	     -1.23393784
     34.27000000	      0.25227142	      8.84086830	     -5.33320416	      4.63487231	     -0.99899042
     34.28000000	      0.25215356	      8.56819509	     -5.17573083	      4.64210410	     -0.80893082
     34.29000000	      0.25202677	      8.33393231	     -5.02441172	      4.64890280	     -0.58404056
     34.30000000	      0.25190278	      8.06319027	     -4.86959800	      4.65387426	     -0.40888660
     34.31000000	      0.25176460	      7.83103985	     -4.71544396	      4.65641542	     -0.19269610
     34.32000000	      0.25161345	      7.55002369	     -4.55116165	      4.65653647	     -0.03129904
     34.33000000	      0.25144840	      7.28824575	     -4.38383127	      4.65360010	      0.15042373
     34.34000000	      0.25126625	      7.02346186	     -4.20822797	      4.64647720	      0.32922248
     34.35000000	      0.25105808	      6.75402625	     -4.02365423	      4.63533213	      0.50314681
     34.36000000	      0.25082550	      6.48037897	     -3.82994450	      4.61990730	      0.67222707
     34.37000000	      0.25056532	      6.20447201	     -3.62520257	      4.59914678	      0.83920775
     34.38000000	      0.25027944	      5.92523664	     -3.41231083	      4.57459385	      1.00096973
     34.39000000	      0.24996861	      5.64523636	     -3.19069053	      4.54574652	      1.16023265
     34.40000000	      0.24964020	      5.36753823	     -2.96531090	      4.51476021	      1.31714163
     34.41000000	      0.24930277	      5.09139048	     -2.73811076	      4.48211026	      1.46896154
     34.42000000	      0.24896643	      4.82230111	     -2.51390979	      4.44921955	      1.61756996
     34.43000000	      0.24864001	      4.56212671	     -2.29763349	      4.41767943	      1.75983007
     34.44000000	      0.24833159	      4.31569867	     -2.09574688	      4.38964126	      1.89490577
     34.45000000	      0.24805374	      4.08768482	     -1.91475829	      4.36703376	      2.02218927
     34.46000000	      0.24781641	      3.88216664	     -1.76067772	      4.35179017	      2.14070261
     34.47000000	      0.24762869	      3.72845202	     -1.63882615	      4.34411699	      2.27952348
     34.48000000	      0.24749546	      3.54996263	     -1.54457821	      4.34584691	      2.35030816
     34.49000000	      0.24741960	      3.43867601	     -1.48758089	      4.35556815	      2.45327221
     34.50000000	      0.24740132	      3.34721280	     -1.46060476	      4.37228053	      2.53578916
     34.51000000	      0.24743277	      3.27667741	     -1.46035209	      4.39467221	      2.60216374
     34.52000000	      0.24750258	      3.22379378	     -1.48444679	      4.42243481	      2.65089736
     34.53000000	      0.24760849	      3.22226524	     -1.52435463	      4.44936947	      2.72827952
     34.54000000	      0.24773199	      3.21988578	     -1.57545007	      4.47770348	      2.77821590
     34.55000000	      0.24785452	      3.20984460	     -1.63099745	      4.50582938	      2.79974673
     34.56000000	      0.24798910	      3.24137773	     -1.68947025	      4.52908202	      2.85112879
     34.57000000	      0.24810377	      3.24213656	     -1.74272353	      4.55039644	      2.85737331
